<svg xmlns="http://www.w3.org/2000/svg" width="19.187" height="24.31" viewBox="0 0 19.187 24.31">
  <defs>
    <style>
      .cls-1 {
        fill: #fff;
        fill-rule: evenodd;
      }
    </style>
  </defs>
  <path id="link" class="cls-1" d="M878.361,1113.81l-3.5,6.06a2,2,0,0,1-2.732.73l-0.866-.5,1-1.73h0a1,1,0,0,0,1.366-.37l2.5-4.33a0.994,0.994,0,0,0-.366-1.36l-3.464-2a1,1,0,0,0-1.366.36l-2.5,4.33a1.006,1.006,0,0,0,.366,1.37l-1,1.73-0.866-.5a2,2,0,0,1-.732-2.73l3.5-6.06a1.989,1.989,0,0,1,2.732-.73l5.2,3A2,2,0,0,1,878.361,1113.81Zm-11.83,10.49a1.006,1.006,0,0,1-.366-1.37l4-6.93a1,1,0,0,1,1.732,1l-4,6.93A1,1,0,0,1,866.531,1124.3Zm-0.732-2.73h0a0.993,0.993,0,0,0-1.366.36l-2.5,4.33a1.006,1.006,0,0,0,.366,1.37l3.464,2a1,1,0,0,0,1.366-.37l2.5-4.33a0.992,0.992,0,0,0-.366-1.36h0l1-1.74,0.866,0.5a2.01,2.01,0,0,1,.732,2.74l-3.5,6.06a2,2,0,0,1-2.732.73l-5.2-3a2,2,0,0,1-.732-2.73l3.5-6.06a2,2,0,0,1,2.732-.74l0.866,0.5Z" transform="translate(-859.438 -1107.81)"/>
</svg>
